<?xml version="1.0" standalone="no"?><!DOCTYPE svg PUBLIC "-//W3C//DTD SVG 1.1//EN" "http://www.w3.org/Graphics/SVG/1.1/DTD/svg11.dtd"><svg class="icon" width="32px" height="32.00px" viewBox="0 0 1024 1024" version="1.1" xmlns="http://www.w3.org/2000/svg"><path fill="#d81e06" d="M707.584 93.184c-77.312 0-148.992 38.912-196.608 102.912-47.104-64-119.296-102.912-196.608-102.912-139.264 0-252.416 123.904-252.416 275.968 0 90.624 40.448 154.624 73.216 205.824 94.72 148.992 333.312 333.824 343.552 341.504 9.728 7.68 20.992 11.264 32.256 11.264s22.528-3.584 32.256-11.264c10.24-7.68 248.32-193.024 343.552-341.504 32.768-51.2 73.216-115.2 73.216-205.824 0-152.064-113.152-275.968-252.416-275.968z m114.176 480.256c-87.552 122.88-272.896 263.168-282.112 269.824-8.704 6.656-18.944 10.24-28.672 10.24-10.24 0-19.968-3.072-28.672-10.24-9.216-6.656-190.976-148.48-282.112-274.944-29.184-46.08-75.776-103.424-75.776-184.32 0-136.192 75.776-231.936 200.192-231.936 69.12 0 144.384 66.048 186.368 123.392 42.496-57.344 117.248-123.392 186.368-123.392 124.928 0 205.824 95.744 205.824 231.936 0 80.896-51.712 143.872-81.408 189.44z"  /><path fill="#d81e06" d="M510.976 275.456S599.04 81.92 719.36 128s204.8 148.48 204.8 184.32 81.92 140.8-243.2 460.8S110.08 427.52 110.08 427.52L122.88 220.16s122.88-114.176 140.8-99.328 140.8 7.168 174.08 40.448 73.216 114.176 73.216 114.176z"  /></svg>