<?xml version="1.0" encoding="UTF-8"?>
<svg width="832px" height="630px" viewBox="0 0 832 630" version="1.1" xmlns="http://www.w3.org/2000/svg" xmlns:xlink="http://www.w3.org/1999/xlink">
    <title>城市金币背景</title>
    <defs>
        <linearGradient x1="30.6084252%" y1="21.3318575%" x2="42.7381178%" y2="64.0775342%" id="linearGradient-1">
            <stop stop-color="#FFFBFC" offset="0%"></stop>
            <stop stop-color="#FFEADB" offset="100%"></stop>
        </linearGradient>
        <path d="M632.039442,164.329694 C681.840383,188.462583 809.878071,252.178998 788.55198,422.279002 C777.543664,491.336935 742.584044,557.1205 645.643025,570.551806 C559.492925,582.488017 504.086385,562.892855 444.673246,550.990338 C288.393402,520.56185 155.091164,540.109683 69.9359878,488.474817 C23.8994261,458.455084 -47.6714244,351.231653 46.951084,271.861568 C113.107189,222.704688 114.062963,128.311751 170.496162,62.5656122 C230.691863,-4.064339 334.242895,-20.6256722 415.407227,30.1322579 C469.645224,64.0512028 521.303613,122.829604 632.039442,164.329694 Z" id="path-2"></path>
        <path d="M632.039442,164.329694 C681.840383,188.462583 809.878071,252.178998 788.55198,422.279002 C777.543664,491.336935 742.584044,557.1205 645.643025,570.551806 C559.492925,582.488017 504.086385,562.892855 444.673246,550.990338 C288.393402,520.56185 155.091164,540.109683 69.9359878,488.474817 C23.8994261,458.455084 -47.6714244,351.231653 46.951084,271.861568 C113.107189,222.704688 114.062963,128.311751 170.496162,62.5656122 C230.691863,-4.064339 334.242895,-20.6256722 415.407227,30.1322579 C469.645224,64.0512028 521.303613,122.829604 632.039442,164.329694 Z" id="path-4"></path>
        <path d="M632.039442,164.329694 C681.840383,188.462583 809.878071,252.178998 788.55198,422.279002 C777.543664,491.336935 742.584044,557.1205 645.643025,570.551806 C559.492925,582.488017 504.086385,562.892855 444.673246,550.990338 C288.393402,520.56185 155.091164,540.109683 69.9359878,488.474817 C23.8994261,458.455084 -47.6714244,351.231653 46.951084,271.861568 C113.107189,222.704688 114.062963,128.311751 170.496162,62.5656122 C230.691863,-4.064339 334.242895,-20.6256722 415.407227,30.1322579 C469.645224,64.0512028 521.303613,122.829604 632.039442,164.329694 Z" id="path-6"></path>
        <path d="M632.039442,164.329694 C681.840383,188.462583 809.878071,252.178998 788.55198,422.279002 C777.543664,491.336935 742.584044,557.1205 645.643025,570.551806 C559.492925,582.488017 504.086385,562.892855 444.673246,550.990338 C288.393402,520.56185 155.091164,540.109683 69.9359878,488.474817 C23.8994261,458.455084 -47.6714244,351.231653 46.951084,271.861568 C113.107189,222.704688 114.062963,128.311751 170.496162,62.5656122 C230.691863,-4.064339 334.242895,-20.6256722 415.407227,30.1322579 C469.645224,64.0512028 521.303613,122.829604 632.039442,164.329694 Z" id="path-8"></path>
        <path d="M632.039442,164.329694 C681.840383,188.462583 809.878071,252.178998 788.55198,422.279002 C777.543664,491.336935 742.584044,557.1205 645.643025,570.551806 C559.492925,582.488017 504.086385,562.892855 444.673246,550.990338 C288.393402,520.56185 155.091164,540.109683 69.9359878,488.474817 C23.8994261,458.455084 -47.6714244,351.231653 46.951084,271.861568 C113.107189,222.704688 114.062963,128.311751 170.496162,62.5656122 C230.691863,-4.064339 334.242895,-20.6256722 415.407227,30.1322579 C469.645224,64.0512028 521.303613,122.829604 632.039442,164.329694 Z" id="path-10"></path>
        <linearGradient x1="2.33679525%" y1="51.3176974%" x2="98.2334941%" y2="52.0787108%" id="linearGradient-12">
            <stop stop-color="#FB966A" offset="0%"></stop>
            <stop stop-color="#FFBD96" offset="18.815984%"></stop>
            <stop stop-color="#FFA866" offset="40.7068201%"></stop>
            <stop stop-color="#FFCA96" offset="65.197424%"></stop>
            <stop stop-color="#FFB562" offset="79.7957137%"></stop>
            <stop stop-color="#FFB85A" offset="100%"></stop>
        </linearGradient>
        <linearGradient x1="50%" y1="132.829861%" x2="50%" y2="22.65625%" id="linearGradient-13">
            <stop stop-color="#FFB7B7" offset="0%"></stop>
            <stop stop-color="#FC8D7F" offset="100%"></stop>
        </linearGradient>
        <linearGradient x1="50%" y1="26.85019%" x2="50%" y2="100%" id="linearGradient-14">
            <stop stop-color="#FECECE" stop-opacity="0" offset="0%"></stop>
            <stop stop-color="#FCCDA0" offset="100%"></stop>
        </linearGradient>
        <linearGradient x1="50%" y1="0%" x2="50%" y2="100%" id="linearGradient-15">
            <stop stop-color="#FFEFBB" offset="0%"></stop>
            <stop stop-color="#FFF8DF" stop-opacity="0" offset="100%"></stop>
        </linearGradient>
        <linearGradient x1="50%" y1="0%" x2="50%" y2="99.8575424%" id="linearGradient-16">
            <stop stop-color="#FFEFCA" offset="0%"></stop>
            <stop stop-color="#FFE1A4" offset="45.922371%"></stop>
            <stop stop-color="#FFE0A3" offset="69.0087708%"></stop>
            <stop stop-color="#FFCF78" offset="99.9524916%"></stop>
        </linearGradient>
        <linearGradient x1="50%" y1="0.665118243%" x2="50%" y2="100%" id="linearGradient-17">
            <stop stop-color="#F19631" offset="0%"></stop>
            <stop stop-color="#F9C079" offset="100%"></stop>
        </linearGradient>
        <linearGradient x1="83.7374692%" y1="45.2895834%" x2="44.8540532%" y2="50%" id="linearGradient-18">
            <stop stop-color="#FFF4E4" offset="0%"></stop>
            <stop stop-color="#FFE5C4" offset="100%"></stop>
        </linearGradient>
        <linearGradient x1="50%" y1="0%" x2="50%" y2="99.8575424%" id="linearGradient-19">
            <stop stop-color="#FFEFCA" offset="0%"></stop>
            <stop stop-color="#FFE1A4" offset="45.922371%"></stop>
            <stop stop-color="#FFE0A3" offset="69.0087708%"></stop>
            <stop stop-color="#FFCF78" offset="99.9524916%"></stop>
        </linearGradient>
        <linearGradient x1="50%" y1="0.665118243%" x2="50%" y2="100%" id="linearGradient-20">
            <stop stop-color="#F19631" offset="0%"></stop>
            <stop stop-color="#F9C079" offset="100%"></stop>
        </linearGradient>
        <linearGradient x1="83.7374692%" y1="47.1321437%" x2="44.8540532%" y2="50%" id="linearGradient-21">
            <stop stop-color="#FFF4E4" offset="0%"></stop>
            <stop stop-color="#FFE5C4" offset="100%"></stop>
        </linearGradient>
        <linearGradient x1="60.5062654%" y1="50%" x2="73.193977%" y2="100%" id="linearGradient-22">
            <stop stop-color="#FDDA72" offset="0%"></stop>
            <stop stop-color="#F9B33E" stop-opacity="0" offset="100%"></stop>
        </linearGradient>
        <linearGradient x1="50%" y1="0%" x2="50%" y2="99.8575424%" id="linearGradient-23">
            <stop stop-color="#FFEFCA" offset="0%"></stop>
            <stop stop-color="#FFE1A4" offset="45.922371%"></stop>
            <stop stop-color="#FFE0A3" offset="69.0087708%"></stop>
            <stop stop-color="#FFCF78" offset="99.9524916%"></stop>
        </linearGradient>
        <linearGradient x1="50%" y1="0.665118243%" x2="50%" y2="100%" id="linearGradient-24">
            <stop stop-color="#F19631" offset="0%"></stop>
            <stop stop-color="#F9C079" offset="100%"></stop>
        </linearGradient>
        <linearGradient x1="83.7374692%" y1="47.1754991%" x2="44.8540532%" y2="50%" id="linearGradient-25">
            <stop stop-color="#FFF4E4" offset="0%"></stop>
            <stop stop-color="#FFE5C4" offset="100%"></stop>
        </linearGradient>
    </defs>
    <g id="页面-1" stroke="none" stroke-width="1" fill="none" fill-rule="evenodd">
        <g id="城市金币背景" transform="translate(0.839297, 0.793344)">
            <g id="路径-222" transform="translate(415.510910, 314.512027) rotate(-4.000000) translate(-415.510910, -314.512027) translate(20.010910, 27.012027)" fill="url(#linearGradient-1)" fill-rule="nonzero">
                <path d="M632.039442,164.329694 C681.840383,188.462583 809.878071,252.178998 788.55198,422.279002 C777.543664,491.336935 742.584044,557.1205 645.643025,570.551806 C559.492925,582.488017 504.086385,562.892855 444.673246,550.990338 C288.393402,520.56185 155.091164,540.109683 69.9359878,488.474817 C23.8994261,458.455084 -47.6714244,351.231653 46.951084,271.861568 C113.107189,222.704688 114.062963,128.311751 170.496162,62.5656122 C230.691863,-4.064339 334.242895,-20.6256722 415.407227,30.1322579 C469.645224,64.0512028 521.303613,122.829604 632.039442,164.329694 Z" id="path-2"></path>
            </g>
            <g id="路径-236-Clipped" transform="translate(20.000000, 27.000000)">
                <mask id="mask-3" fill="white">
                    <use xlink:href="#path-2"></use>
                </mask>
                <g id="path-2"></g>
                <polygon id="路径-236" fill="#FFF5A4" fill-rule="nonzero" mask="url(#mask-3)" points="291.248802 309.190287 433.150522 376.738258 560.191474 324.639186 557.188291 416.178945 283.191474 494.190287"></polygon>
            </g>
            <g id="编组-22-Clipped" transform="translate(20.000000, 27.000000)">
                <mask id="mask-5" fill="white">
                    <use xlink:href="#path-4"></use>
                </mask>
                <g id="path-2"></g>
                <g id="编组-22" opacity="0.430524554" mask="url(#mask-5)">
                    <g transform="translate(515.000000, 217.000000)" id="编组">
                        <g transform="translate(115.170230, 187.047988) scale(-1, 1) rotate(-2.000000) translate(-115.170230, -187.047988) translate(6.670230, 4.047988)">
                            <polygon id="路径-85" fill="#FFD188" fill-rule="nonzero" points="55.0279612 6.02091144 -1.18399986e-13 338.775317 67.0645952 365.927625 101.93095 0.481877378"></polygon>
                            <polygon id="路径-85" fill="#FFF0B7" fill-rule="nonzero" points="216.585736 44.6606783 196.904159 279.493661 77.4543175 248.85901 101.93095 0.481877378"></polygon>
                            <polygon id="路径-231" fill="#FCE28C" fill-rule="nonzero" points="185.562801 32.8877726 160.278221 314.90781 193.414077 320.762582 216.585736 44.0505814"></polygon>
                            <polygon id="路径-230" fill="#FCE28C" fill-rule="nonzero" points="140.062275 15.1929017 119.634863 248.85901 82.4968421 229.915479 104.522545 1.52801716"></polygon>
                            <path d="M135.44038,107.223238 C135.44038,112.991567 130.139918,176.666244 119.538995,298.247271 L155.625654,320.762582 L182.275447,31.8865834 C172.330708,27.9241848 167.149187,25.8481518 166.730883,25.6584845 C153.398399,64.0124778 139.070734,102.437824 135.44038,107.223238 Z" id="路径-230" fill="#FFEAA7" fill-rule="nonzero"></path>
                            <polygon id="路径-235" fill="#FFD77C" fill-rule="nonzero" points="177.99717 116.232146 209.911696 123.62911 206.212231 168.307817 173.935144 160.555481"></polygon>
                            <polygon id="路径-235" fill="#FFD77C" fill-rule="nonzero" points="185.562801 32.8877726 216.585736 44.0505814 213.225747 83.7104242 181.859601 73.5395758"></polygon>
                            <polygon id="路径-235" fill="#FFD77C" fill-rule="nonzero" points="91.8684321 132.71785 128.99018 142.269981 122.735843 209.980575 85.5989196 200.107703"></polygon>
                            <polygon id="路径-235" fill="#FFE09C" fill-rule="nonzero" points="131.263658 158.401733 169.569464 167.819052 165.808166 213.240006 127.540459 204.883964"></polygon>
                            <polygon id="路径-235" fill="#FFE09C" fill-rule="nonzero" points="124.900456 232.78013 162.754797 241.948678 158.522796 287.450537 120.811859 279.254988"></polygon>
                            <polygon id="路径-235" fill="#FFE09C" fill-rule="nonzero" points="137.781371 69.9341164 177.872391 79.6119821 173.935144 126.257948 134.833965 117.039758"></polygon>
                        </g>
                    </g>
                </g>
            </g>
            <g id="编组-22-Clipped" transform="translate(20.000000, 27.000000)">
                <mask id="mask-7" fill="white">
                    <use xlink:href="#path-6"></use>
                </mask>
                <g id="path-2"></g>
                <g id="编组-22" mask="url(#mask-7)">
                    <g transform="translate(661.000000, 159.000000)" id="编组">
                        <g transform="translate(77.809604, 173.197767) scale(-1, 1) translate(-77.809604, -173.197767) translate(0.809604, 0.197767)">
                            <polygon id="路径-231" fill="#FCE28C" fill-rule="nonzero" points="126.077945 31.870172 100.817767 314.100886 133.921645 319.960032 153.970163 47.947901"></polygon>
                            <polygon id="路径-230" fill="#FCE28C" fill-rule="nonzero" points="80.6213299 14.1620825 51.5023847 343.964514 0.869753025 309.640872 45.115898 0.486989952"></polygon>
                            <path d="M79.1358405,57.3004807 C79.1358405,63.0731181 70.9651408,159.119027 54.6237414,345.438206 L96.1696893,319.960032 L122.793764,30.8682348 C112.858622,26.9028762 107.682101,24.8252924 107.264201,24.6354833 C85.000069,41.8836802 82.7626903,52.5114917 79.1358405,57.3004807 Z" id="路径-230" fill="#FFEAA7" fill-rule="nonzero"></path>
                            <polygon id="路径-235" fill="#FFD77C" fill-rule="nonzero" points="118.558082 115.799481 148.093615 127.832656 144.997025 169.081181 114.748975 158.682139"></polygon>
                            <polygon id="路径-235" fill="#FFD77C" fill-rule="nonzero" points="126.077945 31.870172 153.986928 46.3266366 151.176488 86.3768531 122.271139 74.3866497"></polygon>
                            <path d="M34.0478843,127.832656 L69.0276288,141.275874 L62.0649053,217.290642 L18.5889388,200.060256 C18.8392861,192.323042 19.6988785,184.842632 21.1677159,177.619026 C24.0089768,160.767579 28.3023663,144.172123 34.0478843,127.832656 Z" id="路径-235" fill="#FFD77C" fill-rule="nonzero"></path>
                            <polygon id="路径-235" fill="#FFE09C" fill-rule="nonzero" points="71.425419 152.687379 110.215794 166.572954 105.53439 219.599901 66.6466037 207.801971"></polygon>
                            <polygon id="路径-235" fill="#FFE09C" fill-rule="nonzero" points="64.7366524 231.322263 102.978352 243.807932 98.7245888 290.59039 60.3304795 279.544445"></polygon>
                            <polygon id="路径-235" fill="#FFE09C" fill-rule="nonzero" points="78.1375551 71.6094044 117.377032 86.3768531 112.798636 137.282824 74.03417 123.903576"></polygon>
                            <polygon id="路径-235" fill="#FFD77C" fill-rule="nonzero" points="110.435646 206.408872 141.231228 217.677893 138.039509 263.038183 106.23956 253.50524"></polygon>
                            <polygon id="路径-235" fill="#FFD77C" fill-rule="nonzero" points="104.565448 271.831354 136.528109 282.00891 135.379273 302.718704 101.401416 309.640872"></polygon>
                        </g>
                    </g>
                </g>
            </g>
            <g id="编组-22-Clipped" transform="translate(20.000000, 27.000000)">
                <mask id="mask-9" fill="white">
                    <use xlink:href="#path-8"></use>
                </mask>
                <g id="path-2"></g>
                <g id="编组-22" opacity="0.430524554" mask="url(#mask-9)">
                    <g transform="translate(76.000000, 217.000000)" id="编组">
                        <g transform="translate(115.032031, 187.047988) rotate(-2.000000) translate(-115.032031, -187.047988) translate(6.532031, 4.047988)">
                            <polygon id="路径-85" fill="#FFD188" fill-rule="nonzero" points="55.0279612 6.02091144 -1.18399986e-13 338.775317 67.0645952 365.927625 101.93095 0.481877378"></polygon>
                            <polygon id="路径-85" fill="#FFF0B7" fill-rule="nonzero" points="216.585736 44.6606783 196.904159 279.493661 77.4543175 248.85901 101.93095 0.481877378"></polygon>
                            <polygon id="路径-231" fill="#FCE28C" fill-rule="nonzero" points="185.562801 32.8877726 160.278221 314.90781 193.414077 320.762582 216.585736 44.0505814"></polygon>
                            <polygon id="路径-230" fill="#FCE28C" fill-rule="nonzero" points="140.062275 15.1929017 119.634863 248.85901 82.4968421 229.915479 104.522545 1.52801716"></polygon>
                            <path d="M135.44038,107.223238 C135.44038,112.991567 130.139918,176.666244 119.538995,298.247271 L155.625654,320.762582 L182.275447,31.8865834 C172.330708,27.9241848 167.149187,25.8481518 166.730883,25.6584845 C153.398399,64.0124778 139.070734,102.437824 135.44038,107.223238 Z" id="路径-230" fill="#FFEAA7" fill-rule="nonzero"></path>
                            <polygon id="路径-235" fill="#FFD77C" fill-rule="nonzero" points="177.99717 116.232146 209.911696 123.62911 206.212231 168.307817 173.935144 160.555481"></polygon>
                            <polygon id="路径-235" fill="#FFD77C" fill-rule="nonzero" points="185.562801 32.8877726 216.585736 44.0505814 213.225747 83.7104242 181.859601 73.5395758"></polygon>
                            <polygon id="路径-235" fill="#FFD77C" fill-rule="nonzero" points="91.8684321 132.71785 128.99018 142.269981 122.735843 209.980575 85.5989196 200.107703"></polygon>
                            <polygon id="路径-235" fill="#FFE09C" fill-rule="nonzero" points="131.263658 158.401733 169.569464 167.819052 165.808166 213.240006 127.540459 204.883964"></polygon>
                            <polygon id="路径-235" fill="#FFE09C" fill-rule="nonzero" points="124.900456 232.78013 162.754797 241.948678 158.522796 287.450537 120.811859 279.254988"></polygon>
                            <polygon id="路径-235" fill="#FFE09C" fill-rule="nonzero" points="137.781371 69.9341164 177.872391 79.6119821 173.935144 126.257948 134.833965 117.039758"></polygon>
                            <polygon id="路径-235" fill="#FFD77C" fill-rule="nonzero" points="169.860086 206.360624 202.4451 214.008401 198.708656 258.692034 165.808166 250.939063"></polygon>
                        </g>
                    </g>
                </g>
            </g>
            <g id="编组-22-Clipped" transform="translate(20.000000, 27.000000)">
                <mask id="mask-11" fill="white">
                    <use xlink:href="#path-10"></use>
                </mask>
                <g id="path-2"></g>
                <g id="编组-22" mask="url(#mask-11)">
                    <g transform="translate(-54.000000, 116.000000)" id="编组">
                        <g transform="translate(0.257069, 0.852453)">
                            <polygon id="路径-85" fill="#FFD165" fill-rule="nonzero" points="76.7711551 0 -8.14412151e-14 342.269456 67.0985601 369.368605 103.994672 14.7979073"></polygon>
                            <polygon id="路径-85" fill="#FFF0B7" fill-rule="nonzero" points="216.695426 48.7306472 186.794149 408.014297 67.0534264 371.834233 87.3368556 170.923636 103.994672 5.92531287"></polygon>
                            <polygon id="路径-231" fill="#FCE28C" fill-rule="nonzero" points="185.656779 36.980791 158.60308 333.000619 193.429181 325.957422 216.695426 48.1217448"></polygon>
                            <path d="M130.982853,105.784225 C133.03019,104.018816 126.025285,188.147769 109.968137,358.171086 L72.8113078,339.264643 L90.4533101,163.959277 C115.425668,126.941319 128.935516,107.549635 130.982853,105.784225 Z" id="路径-230" fill="#FCE28C" fill-rule="nonzero"></path>
                            <path d="M135.508974,111.17072 C135.508974,116.927755 128.381961,199.26121 114.127936,358.171086 L150.232871,380.642316 L182.36776,35.9815619 C172.417985,32.0269211 167.233839,29.9549527 166.815324,29.7656566 C153.476088,68.0445591 139.141166,106.394675 135.508974,111.17072 Z" id="路径-230" fill="#FFEAA7" fill-rule="nonzero"></path>
                            <polygon id="路径-235" fill="#FFD77C" fill-rule="nonzero" points="178.087317 120.16199 210.018005 127.544471 206.316667 172.135704 174.023233 164.398547"></polygon>
                            <polygon id="路径-235" fill="#FFD77C" fill-rule="nonzero" points="185.656779 36.980791 216.695426 48.1217448 213.333735 87.7039399 181.951704 77.5530045"></polygon>
                            <polygon id="路径-235" fill="#FFD77C" fill-rule="nonzero" points="82.6709866 244.103556 119.798307 252.414311 112.953159 326.005802 75.1298256 315.115445"></polygon>
                            <polygon id="路径-235" fill="#FFD77C" fill-rule="nonzero" points="92.4834441 145.059872 128.482191 154.080867 122.420567 221.347435 85.6422712 212.188147"></polygon>
                            <polygon id="路径-235" fill="#FFE09C" fill-rule="nonzero" points="131.330136 162.249016 169.655343 171.647896 165.89214 216.979924 127.605052 208.640242"></polygon>
                            <polygon id="路径-235" fill="#FFE09C" fill-rule="nonzero" points="124.963712 236.481791 162.837224 245.632388 158.60308 291.045162 120.873044 282.865658"></polygon>
                            <polygon id="路径-235" fill="#FFE09C" fill-rule="nonzero" points="137.85115 73.954604 177.962475 83.613522 174.023233 130.168162 134.902252 120.96802"></polygon>
                            <polygon id="路径-235" fill="#FFD77C" fill-rule="nonzero" points="169.946112 210.11401 202.547629 217.746814 198.809292 262.342963 165.89214 254.605171"></polygon>
                            <polygon id="路径-235" fill="#FFD77C" fill-rule="nonzero" points="163.872786 276.222218 197.003881 283.103864 194.971807 307.097261 177.656697 310.217601 160.359394 313.781238"></polygon>
                            <path d="M99.1168433,358.171086 C67.8089394,311.842969 270.474789,284.779395 465.871557,283.347014 C581.033316,282.502807 818.008974,318.644955 818.008974,378.958123 C807.589127,416.646178 771.950543,439.809006 711.093223,448.44661 L174.023233,421.654414 C135.604455,400.384376 110.635659,379.223266 99.1168433,358.171086 Z" id="路径-84" fill="#FFD387" fill-rule="nonzero"></path>
                        </g>
                    </g>
                </g>
            </g>
            <polygon id="路径-237" fill="#FFCFCA" fill-rule="nonzero" points="246.463769 172.305153 238.742451 180.704829 251.536735 188.305153 258.742451 179.471368"></polygon>
            <polygon id="路径-237" fill="#FFCFCA" fill-rule="nonzero" opacity="0.45359003" points="285.896769 181.662274 280.491847 188.48701 289.447845 194.662274 294.491847 187.484824"></polygon>
            <polygon id="路径-237" fill="#FFCFCA" fill-rule="nonzero" points="268.399589 289.141876 260.678271 297.541551 273.472555 305.141876 280.678271 296.308091"></polygon>
            <polygon id="路径-237" fill="#FFCFCA" fill-rule="nonzero" opacity="0.45359003" points="308.203789 316.522931 302.798866 323.347667 311.754865 329.522931 316.798866 322.345481"></polygon>
            <polygon id="路径-237" fill="#FFCFCA" fill-rule="nonzero" points="225.543176 255.625792 217.821859 264.025467 230.616142 271.625792 237.821859 262.792007"></polygon>
            <polygon id="路径-237" fill="#FFCFCA" fill-rule="nonzero" opacity="0.45359003" points="264.976177 264.982913 259.571254 271.807649 268.527253 277.982913 273.571254 270.805462"></polygon>
            <polygon id="路径-237" fill="#FFCFCA" fill-rule="nonzero" transform="translate(477.913862, 265.354930) scale(-1, 1) translate(-477.913862, -265.354930) " points="475.63518 257.35493 467.913862 265.754605 480.708145 273.35493 487.913862 264.521145"></polygon>
            <polygon id="路径-237" fill="#FFCFCA" fill-rule="nonzero" opacity="0.45359003" transform="translate(516.698157, 272.212660) scale(-1, 1) translate(-516.698157, -272.212660) " points="515.103079 265.71266 509.698157 272.537396 518.654155 278.71266 523.698157 271.53521"></polygon>
            <polygon id="路径-237" fill="#FFCFCA" fill-rule="nonzero" transform="translate(499.884581, 381.192262) scale(-1, 1) translate(-499.884581, -381.192262) " points="497.605899 373.192262 489.884581 381.591937 502.678865 389.192262 509.884581 380.358477"></polygon>
            <polygon id="路径-237" fill="#FFCFCA" fill-rule="nonzero" opacity="0.45359003" transform="translate(539.005177, 407.073317) scale(-1, 1) translate(-539.005177, -407.073317) " points="537.410099 400.573317 532.005177 407.398053 540.961175 413.573317 546.005177 406.395867"></polygon>
            <polygon id="路径-237" fill="#FFCFCA" fill-rule="nonzero" transform="translate(457.992660, 348.710468) scale(-1, 1) translate(-457.992660, -348.710468) " points="455.713978 340.710468 447.99266 349.110143 460.786944 356.710468 467.99266 347.876683"></polygon>
            <polygon id="路径-237" fill="#FFCFCA" fill-rule="nonzero" opacity="0.45359003" transform="translate(495.777564, 355.533299) scale(-1, 1) translate(-495.777564, -355.533299) " points="494.182487 349.033299 488.777564 355.858035 497.733563 362.033299 502.777564 354.855848"></polygon>
            <g id="编组-16" transform="translate(102.825384, 152.293688)" fill-rule="nonzero">
                <path d="M313.828791,400.447949 C438.059942,400.447949 539.810579,378.826919 539.810579,343.162234 C539.810579,333.619471 539.810579,311.174744 539.810579,301.821061 C504.384901,279.507853 405.860929,278.585611 314.870182,278.585611 C221.950178,278.585611 125.274264,277.603151 90.9711752,300.680076 C90.9711752,306.18691 90.9000197,334.173351 90.9711752,343.162234 C91.2816683,369.751058 189.59764,400.447949 313.828791,400.447949 Z" id="椭圆形" fill="#FFA072"></path>
                <ellipse id="椭圆形" fill="#FFE4C2" cx="315.390877" cy="300.979118" rx="224.419702" ry="60.9311688"></ellipse>
                <ellipse id="椭圆形" fill="#FFFFFF" cx="120.130116" cy="298.896001" rx="7.2897351" ry="3.64545455"></ellipse>
                <ellipse id="椭圆形-3" fill="#FFFFFF" cx="186.779122" cy="333.267429" rx="7.2897351" ry="3.64545455"></ellipse>
                <ellipse id="椭圆形" fill="#FFFFFF" cx="310.704619" cy="347.849247" rx="7.2897351" ry="3.64545455"></ellipse>
                <ellipse id="椭圆形" fill="#FFFFFF" cx="426.29899" cy="339.51678" rx="7.2897351" ry="3.64545455"></ellipse>
                <path d="M318.515049,318.164832 C428.083213,318.164832 491.906606,295.252149 491.906606,275.981715 C491.906606,256.711281 413.344069,241.089507 316.432268,241.089507 C219.520467,241.089507 140.95793,256.711281 140.95793,275.981715 C140.95793,295.252149 208.946886,318.164832 318.515049,318.164832 Z" id="椭圆形" fill="#75EEFF"></path>
                <path d="M321.639222,330.663533 C392.857985,330.663533 474.595519,319.971285 491.906606,290.565265 C491.906606,285.101519 491.906606,280.583172 491.906606,275.227685 C464.207177,262.452172 387.171032,261.924139 316.025135,261.924139 C243.370747,261.924139 167.779603,261.361628 140.95793,274.57441 C140.95793,277.727369 140.95793,286.46019 140.95793,291.606823 C140.95793,305.194174 201.002648,330.663533 321.639222,330.663533 Z" id="椭圆形" fill="url(#linearGradient-12)"></path>
                <path d="M318.515049,317.123273 C428.083213,317.123273 491.906606,294.210591 491.906606,274.940156 C491.906606,255.669722 413.344069,240.047949 316.432268,240.047949 C219.520467,240.047949 140.95793,255.669722 140.95793,274.940156 C140.95793,294.210591 208.946886,317.123273 318.515049,317.123273 Z" id="面" fill="#FFDEA7"></path>
                <g id="椭圆形" transform="translate(207.000000, 252.000000)" fill="url(#linearGradient-13)">
                    <ellipse id="path-6" cx="114.639222" cy="23.981715" rx="114.032285" ry="23.4350649"></ellipse>
                </g>
                <path d="M321.639222,252.54665 C384.617514,252.54665 435.671507,263.038886 435.671507,275.981715 C435.671507,277.00888 435.349955,278.02061 434.726409,279.012887 C431.716834,268.27747 396.674515,254.208459 317.846654,255.671325 C241.051626,257.043411 214.389704,268.508024 208.501542,278.929218 C207.910641,277.963637 207.606937,276.979965 207.606937,275.981715 C207.606937,263.038886 258.66093,252.54665 321.639222,252.54665 Z" id="形状结合" fill="#F96464"></path>
                <path d="M321.639222,299.41678 C380.57205,299.41678 429.063311,290.229206 435.049894,278.443429 C435.460845,277.63439 628.030184,2.74248755 628.030184,0.513918661 C620.609889,-1.4125576 34.7885387,14.2576078 0,14.2576078 C23.7892695,60.1878939 207.305759,277.992111 207.526439,278.28778 C216.957909,290.924158 260.100818,299.41678 321.639222,299.41678 Z" id="椭圆形" fill="url(#linearGradient-14)" opacity="0.614513579"></path>
            </g>
            <g id="金币" transform="translate(607.096425, 261.361836) rotate(-84.000000) translate(-607.096425, -261.361836) translate(570.096425, 223.361836)" fill-rule="nonzero">
                <path d="M7.12865518,4.48234121 C5.49714255,11.1153648 11.7315345,33.5399141 21.8277127,39.2858649 C32.1887578,46.3281369 29.7215309,58.5687664 36.8252861,65.5060438 C42.8335533,71.3735061 53.0010274,71.8694436 53.1192805,71.8117722 C44.1020189,60.6378687 45.6962998,56.8937002 42.408013,45.763404 C41.0098779,39.3936256 36.9660845,29.6770042 30.2766328,16.6135398 C16.905714,6.23490834 9.18972142,2.19117549 7.12865518,4.48234121 Z" id="路径-148" fill="url(#linearGradient-15)" transform="translate(29.994741, 37.838305) rotate(169.000000) translate(-29.994741, -37.838305) "></path>
                <path d="M58.4302001,50.7674863 C65.8514021,51.4448647 72.1432327,50.1568272 72.0946031,48.3140367 C72.0873727,48.040046 72.0089766,46.8640661 71.8594148,44.786097 C66.5259557,43.2327621 61.9371937,42.2806591 58.0931287,41.9297878 C54.0495112,41.5607022 49.6138753,41.5640182 44.7862209,41.939736 C44.965093,44.1538112 45.0643222,45.3812461 45.0839085,45.6220407 C45.2236147,47.3395909 51.0089982,50.0901079 58.4302001,50.7674863 Z" id="path-11" fill-opacity="0.9" fill="#F8BB4A"></path>
                <path d="M46.3716193,50.0868768 C46.5395402,50.0915089 46.7068652,50.0967071 46.8735944,50.1024713 L51.1257622,55.4682809 L48.2660943,58.8330524 C48.0446434,58.7967897 47.8253473,58.7588138 47.6083354,58.7192249 C44.7489782,55.3559893 43.5151128,53.4451423 43.9061344,52.98513 C44.2710931,52.5557792 45.0346134,51.6575457 46.1966955,50.2904296 Z" id="形状结合" fill="#F5A02F"></path>
                <path d="" id="形状结合" fill="#F5A02F" opacity="0.855608259"></path>
                <path d="" id="形状结合" fill="#F5A02F"></path>
                <path d="M54.0473743,58.7454074 L53.6900688,59.336653 C53.0634907,59.3189448 52.4227387,59.2871265 51.7714733,59.2402073 C52.1293449,58.6484831 52.4691323,58.0862782 52.7292754,57.655851 C53.2171975,56.8485456 53.6565638,57.2117311 54.0473743,58.7454074 Z" id="形状结合" fill="#F5A02F"></path>
                <path d="M52.6078679,56.8331395 C60.0286876,57.5104921 66.3044259,56.0462997 66.2541401,54.1855224 C66.2038543,52.3247451 59.7617236,49.564581 52.340904,48.8872285 C44.9200844,48.2098759 39.13864,49.2307206 39.1758351,51.2148112 C39.2137545,53.1989017 45.1870483,56.155787 52.6078679,56.8331395 Z" id="椭圆形" fill="#FFF3DF" transform="translate(52.715138, 52.839923) rotate(46.000000) translate(-52.715138, -52.839923) "></path>
                <path d="M59.884745,48.1950801 C67.3055646,48.8724327 73.581303,47.4082402 73.5310172,45.5474629 C73.4807314,43.6866856 67.0386007,40.9265216 59.6177811,40.249169 C52.1969614,39.5718164 46.4155171,40.5926612 46.4527122,42.5767517 C46.4906315,44.5608423 52.4639254,47.5177275 59.884745,48.1950801 Z" id="path-18" fill="url(#linearGradient-16)"></path>
                <path d="" id="形状结合" fill="#FFF8E9"></path>
                <path d="" id="形状结合" fill="#FFF8E9"></path>
                <path d="M52.8009589,55.4040233 C58.9022003,55.9609245 64.0847466,55.0049419 64.0642702,53.7008959 C64.0435498,52.3968499 58.7712425,50.3917933 52.6700011,49.8348921 C46.5687598,49.2779909 41.7980708,49.9288947 41.8067889,51.3191811 C41.815555,52.7094676 46.6997176,54.8471221 52.8009589,55.4040233 Z" id="椭圆形" fill="url(#linearGradient-17)" transform="translate(52.935530, 52.601041) rotate(46.000000) translate(-52.935530, -52.601041) "></path>
                <polygon id="¥" fill="#E28011" transform="translate(52.623639, 52.233523) scale(-1, 1) rotate(-36.000000) translate(-52.623639, -52.233523) " points="47.3780485 54.8601817 49.2600753 54.0133285 51.1036716 54.6210621 52.6529124 54.076039 52.631791 53.851304 50.5597459 53.5368423 51.7885818 53.2107429 53.6847603 53.62944 55.2214593 53.1146156 55.2003379 52.8898806 53.604184 52.7289318 59.3585487 50.9431528 59.3374273 50.7184178 52.4730144 52.154729 56.8957951 49.8315994 56.8746737 49.6068644 55.8582388 49.6328059 51.360743 52.0101044 49.6330024 51.3978714 48.4504572 51.5170861 48.4715786 51.7418211 50.3188071 52.3543278 49.1806301 53.1141462 47.4016621 52.5814225 46.1681267 52.6094712 46.1892481 52.8342061 47.8983717 53.3687139 45.88873 54.0156343 45.9092511 54.2339819"></polygon>
                <polygon id="¥" fill="url(#linearGradient-18)" transform="translate(52.822947, 51.977679) scale(-1, 1) rotate(-36.000000) translate(-52.822947, -51.977679) " points="47.5670956 54.7037346 49.4491223 53.8568814 51.2927186 54.4646151 52.8419594 53.9195919 50.7487929 53.3803953 51.9776288 53.0542958 53.8738073 53.4729929 55.4105064 52.9581685 53.793231 52.5724847 59.5475957 50.7867057 58.1426148 50.1718242 52.6620614 51.9982819 57.0848421 49.6751523 56.0261644 49.2516238 51.5286686 51.6289223 49.800928 51.0166894 48.6606256 51.585374 50.5078542 52.1978807 49.3485557 52.7329642 47.5695877 52.2002404 46.3782951 52.6777591 48.0874188 53.2122669 46.0982982 54.0775348"></polygon>
            </g>
            <g id="飞溅金币" transform="translate(170.679992, 119.593467)" fill-rule="nonzero">
                <path d="M12.1389473,5.80941421 C10.780905,11.3181128 15.8637414,29.9153976 24.1632427,34.6617126 C32.6779208,40.4833148 30.619315,50.6478942 36.452457,56.3896222 C41.3860554,61.2459038 49.7559667,61.634826 49.8534547,61.586698 C42.4543478,52.3330623 43.7752927,49.2220441 41.0928303,39.991821 C39.9559358,34.7083601 36.6483012,26.6530977 31.1699264,15.8260339 C20.1846213,7.24214342 13.8409616,3.90327022 12.1389473,5.80941421 Z" id="路径-148" fill="#FFECCC" transform="translate(30.886856, 33.440020) rotate(-17.000000) translate(-30.886856, -33.440020) "></path>
                <g id="椭圆形" transform="translate(16.884837, 19.549905) rotate(46.000000) translate(-16.884837, -19.549905) translate(-0.115163, 13.049905)" fill="#F8BB4A" fill-opacity="0.9">
                    <path d="M15.3687291,11.9590314 C24.4186236,11.4323155 32.7689723,8.0899359 33.0497712,5.7967859 C33.0915211,5.4558345 33.1940538,4.1508348 33.3573696,1.8817867 C27.050713,0.9279557 21.5535338,0.5874554 16.8658318,0.8602859 C11.9347826,1.1472795 6.45016547,1.9720288 0.411980306,3.3345339 C0.396434143,5.6943799 0.467933475,7.1072611 0.626478304,7.5731776 C1.10197923,8.7287448 6.31883446,12.4857473 15.3687291,11.9590314 Z" id="path-25"></path>
                </g>
                <path d="M18.3265793,22.045253 C27.3761288,21.5185572 35.4061294,18.5283354 35.6882073,16.2130215 C35.9702853,13.8977075 28.5160819,11.6413422 19.4665323,12.168038 C10.4169828,12.6947338 3.08013206,15.0396464 2.75950359,17.511367 C2.43887513,19.9830877 9.27702979,22.5719488 18.3265793,22.045253 Z" id="椭圆形" fill="#FFF3DF" transform="translate(19.222318, 17.102460) rotate(46.000000) translate(-19.222318, -17.102460) "></path>
                <g id="椭圆形" transform="translate(19.437415, 16.316089) rotate(46.000000) translate(-19.437415, -16.316089) translate(2.437415, 10.816089)" fill="url(#linearGradient-19)">
                    <path d="M16.5396021,10.86608 C25.5891516,10.3393842 33.6191522,7.3491625 33.9012301,5.0338485 C34.1833081,2.7185345 26.7291047,0.4621692 17.6795551,0.988865 C8.63000563,1.5155608 1.29315489,3.8604734 0.97252642,6.3321941 C0.65189795,8.8039147 7.49005261,11.3927758 16.5396021,10.86608 Z" id="path-28"></path>
                </g>
                <path d="M18.8376133,20.3075943 C26.2779116,19.874559 32.8622609,17.7214828 33.0780464,16.0961854 C33.293832,14.4708879 27.1463075,12.9414267 19.7060093,13.374462 C12.265711,13.8074972 6.24700597,15.5032515 6.00060695,17.2384802 C5.75420793,18.9737089 11.3973151,20.7406296 18.8376133,20.3075943 Z" id="椭圆形" fill="url(#linearGradient-20)" transform="translate(19.538199, 16.836949) rotate(46.000000) translate(-19.538199, -16.836949) "></path>
                <polygon id="¥" fill="#E28011" transform="translate(19.072707, 16.392504) scale(-1, 1) rotate(-36.000000) translate(-19.072707, -16.392504) " points="12.6725087 18.5586123 14.9700795 17.8859182 17.4737783 18.9310275 19.3918611 18.5575965 19.3248371 18.2874305 16.5757834 17.549807 18.1158775 17.3795246 20.6546532 18.2097681 22.5617481 17.869933 22.4947241 17.5997669 20.3913631 17.1279327 27.5577304 16.0237882 27.4907063 15.7536222 18.8197333 16.2480046 24.160417 14.2723402 24.093393 14.0021742 22.7765789 13.8539814 17.3483012 15.8807149 14.9944244 14.8506682 13.4780855 14.7838162 13.5451096 15.0539823 16.0543708 16.10539 14.7084932 16.805854 12.3020181 15.8610552 10.7033409 15.677139 10.770365 15.947305 13.0863555 16.8819225 10.587684 17.2951073 10.6528031 17.5575948"></polygon>
                <polygon id="¥" fill="url(#linearGradient-21)" transform="translate(19.338788, 16.084908) scale(-1, 1) rotate(-36.000000) translate(-19.338788, -16.084908) " points="12.9060299 18.3860993 15.2036007 17.7134052 17.7072996 18.7585145 19.6253823 18.3850836 16.8093046 17.377294 18.3493987 17.2070116 20.8881744 18.0372551 22.7952694 17.6974201 20.6248844 16.9554198 27.7912516 15.8512753 25.8565011 14.8749122 19.0532545 16.0754917 24.3939382 14.0998273 22.9430761 13.4113024 17.5147984 15.4380359 15.1609216 14.4079892 13.7786308 14.8814693 16.287892 15.9328771 14.8749904 16.363175 12.4685153 15.4183762 11.0038862 15.7747921 13.3198768 16.7094096 10.8863243 17.3850819"></polygon>
            </g>
            <g id="飞溅金币" transform="translate(568.947695, 149.565079) rotate(56.000000) translate(-568.947695, -149.565079) translate(540.447695, 116.565079)" fill-rule="nonzero">
                <path d="M11.1306091,5.69746366 C9.78308773,11.1769924 14.9403788,29.7038633 23.2870835,34.4525335 C31.8529529,40.2721913 29.8155615,50.3842452 35.6888632,56.1166106 C40.6564281,60.9649735 49.0611779,61.3764105 49.1589188,61.3287859 C41.7031511,52.0960504 43.0203855,49.0031137 40.3003263,39.8073749 C39.1435164,34.54481 35.7991778,26.5168363 30.2673106,15.7234537 C19.2128456,7.14698627 12.8339451,3.80498961 11.1306091,5.69746366 Z" id="路径-148" fill="url(#linearGradient-22)" opacity="0.428548177" transform="translate(30.038164, 33.258188) rotate(-17.000000) translate(-30.038164, -33.258188) "></path>
                <g id="椭圆形" transform="translate(16.204798, 19.108976) rotate(46.000000) translate(-16.204798, -19.108976) translate(-0.795202, 13.108976)" fill="#F8BB4A" fill-opacity="0.9">
                    <path d="M15.4134191,11.873026 C24.4619083,11.2994107 32.8257786,7.9140281 33.1183456,5.6196389 C33.1618452,5.2785034 33.2711012,3.9730956 33.4461137,1.7034156 C27.1472891,0.782393 21.6543898,0.4704435 16.9674158,0.7675671 C12.0371325,1.080115 6.5507444,1.9332393 0.508251664,3.3269402 C0.480470112,5.6866429 0.544606955,7.0990191 0.700662193,7.5640688 C1.1699508,8.7170595 6.36492998,12.4466413 15.4134191,11.873026 Z" id="path-34"></path>
                </g>
                <path d="M17.3899249,21.9564821 C26.438069,21.3828887 34.4799108,18.3512925 34.7738712,16.0347349 C35.0678316,13.7181773 27.6287422,11.5006973 18.5805981,12.0742907 C9.53245389,12.6478841 2.1867928,15.0306366 1.85348805,17.503786 C1.52018331,19.9769354 8.34177998,22.5300756 17.3899249,21.9564821 Z" id="椭圆形" fill="#FFF3DF" transform="translate(18.312037, 17.010394) rotate(46.000000) translate(-18.312037, -17.010394) "></path>
                <g id="椭圆形" transform="translate(18.746936, 16.582655) rotate(46.000000) translate(-18.746936, -16.582655) translate(2.246936, 11.082655)" fill="url(#linearGradient-23)">
                    <path d="M15.6039948,10.7782884 C24.6521389,10.204695 32.6939807,7.1730987 32.9879411,4.8565411 C33.2819015,2.5399836 25.8428121,0.3225035 16.794668,0.896097 C7.74652384,1.4696904 0.40086275,3.8524428 0.067558,6.3255922 C-0.26574675,8.7987416 6.55584993,11.3518818 15.6039948,10.7782884 Z" id="path-37"></path>
                </g>
                <path d="M17.9103688,20.2192524 C25.3495116,19.7476592 31.9420201,17.5606288 32.1661388,15.9343662 C32.3902575,14.3081035 26.2534785,12.8106798 18.8143357,13.2822731 C11.3751929,13.7538663 5.35044252,15.4806837 5.09515407,17.217026 C4.83986563,18.9533682 10.471226,20.6908457 17.9103688,20.2192524 Z" id="椭圆形" fill="url(#linearGradient-24)" transform="translate(18.629449, 16.745895) rotate(46.000000) translate(-18.629449, -16.745895) "></path>
                <polygon id="¥" fill="#E28011" transform="translate(18.157412, 16.306314) scale(-1, 1) rotate(-36.000000) translate(-18.157412, -16.306314) " points="11.7580895 18.4315558 14.0553905 17.7714695 16.567574 18.8269744 18.4863605 18.463715 18.4179136 18.193726 15.6615675 17.4439175 17.2028663 17.2815586 19.7491124 18.1227748 21.6570623 17.7929939 21.5886154 17.523005 19.4801317 17.0416737 26.650565 15.9749851 26.5821182 15.7049961 17.9020706 16.155641 23.2400931 14.2100578 23.1716463 13.9400688 21.8523519 13.7856536 16.4268711 15.7817775 14.0647829 14.7420465 12.5461003 14.6678342 12.6145472 14.9378232 15.1323315 15.9996421 13.7881247 16.6921446 11.3737893 15.7372416 9.77208107 15.5457786 9.84052791 15.8157676 12.1642083 16.7600617 9.66425833 17.1601339 9.73075979 17.4224493"></polygon>
                <polygon id="¥" fill="url(#linearGradient-25)" transform="translate(18.423930, 15.999363) scale(-1, 1) rotate(-36.000000) translate(-18.423930, -15.999363) " points="11.991357 18.2595998 14.288658 17.5995134 16.8008415 18.6550183 18.7196279 18.291759 15.8948349 17.2719614 17.4361337 17.1096025 19.9823798 17.9508188 21.8903297 17.6210379 19.7133992 16.8697176 26.8838325 15.803029 24.9416924 14.8189499 18.135338 15.983685 23.4733606 14.0381017 22.0171724 13.3437086 16.5916917 15.3398324 14.2296035 14.3001014 12.8478146 14.7658671 15.3655989 15.8276861 13.9529453 16.2501996 11.5386099 15.2952965 10.0737953 15.6438115 12.3974757 16.5881057 9.96402721 17.2504933"></polygon>
            </g>
            <g id="飞溅金币" transform="translate(536.651188, 55.930081) rotate(-7.000000) translate(-536.651188, -55.930081) translate(508.151188, 22.930081)" fill-rule="nonzero">
                <path d="M11.1306091,5.69746366 C9.78308773,11.1769924 14.9403788,29.7038633 23.2870835,34.4525335 C31.8529529,40.2721913 29.8155615,50.3842452 35.6888632,56.1166106 C40.6564281,60.9649735 49.0611779,61.3764105 49.1589188,61.3287859 C41.7031511,52.0960504 43.0203855,49.0031137 40.3003263,39.8073749 C39.1435164,34.54481 35.7991778,26.5168363 30.2673106,15.7234537 C19.2128456,7.14698627 12.8339451,3.80498961 11.1306091,5.69746366 Z" id="路径-148" fill="url(#linearGradient-22)" opacity="0.428548177" transform="translate(30.038164, 33.258188) rotate(-17.000000) translate(-30.038164, -33.258188) "></path>
                <g id="椭圆形" transform="translate(16.204798, 19.108976) rotate(46.000000) translate(-16.204798, -19.108976) translate(-0.795202, 13.108976)" fill="#F8BB4A" fill-opacity="0.9">
                    <path d="M15.4134191,11.873026 C24.4619083,11.2994107 32.8257786,7.9140281 33.1183456,5.6196389 C33.1618452,5.2785034 33.2711012,3.9730956 33.4461137,1.7034156 C27.1472891,0.782393 21.6543898,0.4704435 16.9674158,0.7675671 C12.0371325,1.080115 6.5507444,1.9332393 0.508251664,3.3269402 C0.480470112,5.6866429 0.544606955,7.0990191 0.700662192,7.5640688 C1.1699508,8.7170595 6.36492998,12.4466413 15.4134191,11.873026 Z" id="path-42"></path>
                </g>
                <path d="M17.3899249,21.9564821 C26.438069,21.3828887 34.4799108,18.3512925 34.7738712,16.0347349 C35.0678316,13.7181773 27.6287422,11.5006973 18.5805981,12.0742907 C9.53245389,12.6478841 2.1867928,15.0306366 1.85348805,17.503786 C1.52018331,19.9769354 8.34177998,22.5300756 17.3899249,21.9564821 Z" id="椭圆形" fill="#FFF3DF" transform="translate(18.312037, 17.010394) rotate(46.000000) translate(-18.312037, -17.010394) "></path>
                <g id="椭圆形" transform="translate(18.746936, 16.582655) rotate(46.000000) translate(-18.746936, -16.582655) translate(2.246936, 11.082655)" fill="url(#linearGradient-23)">
                    <path d="M15.6039948,10.7782884 C24.6521389,10.204695 32.6939807,7.1730987 32.9879411,4.8565411 C33.2819015,2.5399836 25.8428121,0.3225035 16.794668,0.896097 C7.74652384,1.4696904 0.40086275,3.8524428 0.067558,6.3255922 C-0.26574675,8.7987416 6.55584993,11.3518818 15.6039948,10.7782884 Z" id="path-44"></path>
                </g>
                <path d="M17.9103688,20.2192524 C25.3495116,19.7476592 31.9420201,17.5606288 32.1661388,15.9343662 C32.3902575,14.3081035 26.2534785,12.8106798 18.8143357,13.2822731 C11.3751929,13.7538663 5.35044252,15.4806837 5.09515407,17.217026 C4.83986563,18.9533682 10.471226,20.6908457 17.9103688,20.2192524 Z" id="椭圆形" fill="url(#linearGradient-24)" transform="translate(18.629449, 16.745895) rotate(46.000000) translate(-18.629449, -16.745895) "></path>
                <polygon id="¥" fill="#E28011" transform="translate(18.157412, 16.306314) scale(-1, 1) rotate(-36.000000) translate(-18.157412, -16.306314) " points="11.7580895 18.4315558 14.0553905 17.7714695 16.567574 18.8269744 18.4863605 18.463715 18.4179136 18.193726 15.6615675 17.4439175 17.2028663 17.2815586 19.7491124 18.1227748 21.6570623 17.7929939 21.5886154 17.523005 19.4801317 17.0416737 26.650565 15.9749851 26.5821182 15.7049961 17.9020706 16.155641 23.2400931 14.2100578 23.1716463 13.9400688 21.8523519 13.7856536 16.4268711 15.7817775 14.0647829 14.7420465 12.5461003 14.6678342 12.6145472 14.9378232 15.1323315 15.9996421 13.7881247 16.6921446 11.3737893 15.7372416 9.77208107 15.5457786 9.84052791 15.8157676 12.1642083 16.7600617 9.66425833 17.1601339 9.73075979 17.4224493"></polygon>
                <polygon id="¥" fill="url(#linearGradient-25)" transform="translate(18.423930, 15.999363) scale(-1, 1) rotate(-36.000000) translate(-18.423930, -15.999363) " points="11.991357 18.2595998 14.288658 17.5995134 16.8008415 18.6550183 18.7196279 18.291759 15.8948349 17.2719614 17.4361337 17.1096025 19.9823798 17.9508188 21.8903297 17.6210379 19.7133992 16.8697176 26.8838325 15.803029 24.9416924 14.8189499 18.135338 15.983685 23.4733606 14.0381017 22.0171724 13.3437086 16.5916917 15.3398324 14.2296035 14.3001014 12.8478146 14.7658671 15.3655989 15.8276861 13.9529453 16.2501996 11.5386099 15.2952965 10.0737953 15.6438115 12.3974757 16.5881057 9.96402721 17.2504933"></polygon>
            </g>
        </g>
    </g>
</svg>