<?xml version="1.0" standalone="no"?><!DOCTYPE svg PUBLIC "-//W3C//DTD SVG 1.1//EN" "http://www.w3.org/Graphics/SVG/1.1/DTD/svg11.dtd"><svg class="icon" width="32px" height="32.00px" viewBox="0 0 1024 1024" version="1.1" xmlns="http://www.w3.org/2000/svg"><path fill="#d81e06" d="M286.72 948.906667c-17.066667 0-34.133333-6.826667-47.786667-17.066667-23.893333-20.48-37.546667-54.613333-34.133333-85.333333l37.546667-201.386667-143.36-136.533333c-23.893333-23.893333-27.306667-61.44-23.893334-88.746667 10.24-37.546667 37.546667-61.44 68.266667-64.853333L341.333333 317.44l88.746667-191.146667c20.48-30.72 47.786667-47.786667 81.92-47.786666s61.44 17.066667 78.506667 47.786666l88.746666 191.146667 197.973334 34.133333c30.72 6.826667 58.026667 30.72 68.266666 61.44 10.24 30.72 3.413333 61.44-17.066666 88.746667l-146.773334 143.36 34.133334 201.386667c3.413333 34.133333-6.826667 64.853333-34.133334 85.333333-17.066667 10.24-30.72 17.066667-51.2 17.066667-17.066667 0-34.133333-6.826667-37.546666-10.24L512 843.093333l-184.32 92.16c-13.653333 10.24-27.306667 13.653333-40.96 13.653334z m225.28-819.2c-13.653333 0-23.893333 6.826667-30.72 20.48l-102.4 211.626666-225.28 44.373334c-20.48 3.413333-23.893333 17.066667-27.306667 27.306666 0 10.24 0 30.72 10.24 40.96l163.84 157.013334L256 853.333333c-3.413333 13.653333 3.413333 27.306667 13.653333 37.546667 10.24 6.826667 23.893333 6.826667 34.133334 0l204.8-105.813333 204.8 105.813333c3.413333 3.413333 10.24 3.413333 17.066666 3.413333s13.653333 0 20.48-6.826666c10.24-6.826667 13.653333-23.893333 13.653334-37.546667l-40.96-228.693333 163.84-160.426667c6.826667-10.24 10.24-23.893333 6.826666-40.96-3.413333-13.653333-17.066667-23.893333-27.306666-27.306667l-225.28-40.96-102.4-211.626666c-3.413333-3.413333-13.653333-10.24-27.306667-10.24z"  /></svg>